<svg width="24" height="25" viewBox="0 0 24 25" fill="none" xmlns="http://www.w3.org/2000/svg">
<path d="M12 14.4201V14.306C12 13.6059 12.3689 12.9576 12.9708 12.6001L13.4925 12.2901C14.2411 11.8453 14.7 11.039 14.7 10.1682C14.7 8.80511 13.595 7.7001 12.2319 7.7001H12C10.5088 7.7001 9.3 8.90893 9.3 10.4001V10.5526M12 16.5801V17.0601M12 4.1001L12.9405 4.15291L13.8692 4.3107L14.7743 4.57148L15.6446 4.93196L16.4691 5.38761L17.2373 5.93271L17.9397 6.5604L18.5674 7.26278L19.1125 8.03103L19.5681 8.85547L19.9286 9.72575L20.1894 10.6309L20.3472 11.5596L20.4 12.5001L20.3472 13.4406L20.1894 14.3693L19.9286 15.2744L19.5681 16.1447L19.1125 16.9692L18.5674 17.7374L17.9397 18.4398L17.2373 19.0675L16.4691 19.6126L15.6446 20.0682L14.7743 20.4287L13.8692 20.6895L12.9405 20.8473L12 20.9001L11.0595 20.8473L10.1308 20.6895L9.22565 20.4287L8.35537 20.0682L7.53093 19.6126L6.76268 19.0675L6.0603 18.4398L5.43261 17.7374L4.88752 16.9692L4.43186 16.1447L4.07138 15.2744L3.8106 14.3693L3.65282 13.4406L3.6 12.5001L3.65282 11.5596L3.8106 10.6309L4.07138 9.72575L4.43186 8.85547L4.88752 8.03103L5.43261 7.26278L6.0603 6.5604L6.76268 5.93271L7.53093 5.38761L8.35537 4.93196L9.22565 4.57148L10.1308 4.3107L11.0595 4.15291L12 4.1001Z" stroke="black" stroke-linecap="round" stroke-linejoin="round"/>
</svg>
