<svg width="24" height="24" viewBox="0 0 24 24" fill="none" xmlns="http://www.w3.org/2000/svg">
<path d="M12.5759 16.6105H18.4799C19.5551 16.6105 20.3999 15.7549 20.3999 14.7313V6.6793C20.3999 5.6557 19.5551 4.8001 18.4799 4.8001H5.51992C4.44472 4.8001 3.59992 5.6557 3.59992 6.6793V14.7313C3.59992 15.7549 4.44472 16.6105 5.51992 16.6105H7.43992V20.4001H7.44352L7.44592 20.3989L12.5771 16.6105H12.5759ZM8.15992 21.3637C7.90447 21.552 7.58529 21.6325 7.27109 21.5878C6.95689 21.5432 6.67279 21.3769 6.47992 21.1249C6.32532 20.9212 6.24147 20.6726 6.24112 20.4169V17.8105H5.52112C3.79792 17.8105 2.40112 16.4317 2.40112 14.7313V6.6793C2.39992 4.9789 3.79672 3.6001 5.51992 3.6001H18.4799C20.2031 3.6001 21.5999 4.9789 21.5999 6.6793V14.7313C21.5999 16.4329 20.2031 17.8105 18.4799 17.8105H12.9719L8.15872 21.3637H8.15992Z" fill="black"/>
</svg>
