<svg width="33" height="32" viewBox="0 0 33 32" fill="none" xmlns="http://www.w3.org/2000/svg">
<path d="M16.5 31.5C25.0604 31.5 32 24.5604 32 16C32 7.43959 25.0604 0.5 16.5 0.5C7.93959 0.5 1 7.43959 1 16C1 24.5604 7.93959 31.5 16.5 31.5Z" stroke="#3422F2"/>
<path d="M23.9993 11.9347C24.0029 11.6172 23.9435 11.3022 23.8245 11.0078C23.7055 10.7134 23.5293 10.4455 23.306 10.2194C22.8477 9.76705 22.2319 9.50927 21.5874 9.50002C21.2738 9.49869 20.963 9.55913 20.6728 9.67788C20.3826 9.79663 20.1187 9.97135 19.8962 10.192L23.306 13.6226C23.5323 13.4044 23.7107 13.1418 23.8301 12.8512C23.9494 12.5607 24.007 12.2486 23.9993 11.9347Z" fill="#3422F2"/>
<path d="M22.5309 14.3981L19.1207 10.9944L11.2199 18.8801L14.6301 22.2838L22.5309 14.3981Z" fill="#3422F2"/>
<path d="M10.7766 19.9863L10 23.5L13.5204 22.7249L10.7766 19.9863Z" fill="#3422F2"/>
</svg>
