<svg width="24" height="24" viewBox="0 0 24 24" fill="none" xmlns="http://www.w3.org/2000/svg">
<path d="M11.9903 7.2001V13.9201M11.9903 16.0801V16.5601M12 3.6001L12.9405 3.65291L13.8692 3.8107L14.7743 4.07148L15.6446 4.43196L16.4691 4.88761L17.2373 5.43271L17.9397 6.0604L18.5674 6.76278L19.1125 7.53103L19.5681 8.35547L19.9286 9.22575L20.1894 10.1309L20.3472 11.0596L20.4 12.0001L20.3472 12.9406L20.1894 13.8693L19.9286 14.7744L19.5681 15.6447L19.1125 16.4692L18.5674 17.2374L17.9397 17.9398L17.2373 18.5675L16.4691 19.1126L15.6446 19.5682L14.7743 19.9287L13.8692 20.1895L12.9405 20.3473L12 20.4001L11.0595 20.3473L10.1308 20.1895L9.22565 19.9287L8.35537 19.5682L7.53093 19.1126L6.76268 18.5675L6.0603 17.9398L5.43261 17.2374L4.88752 16.4692L4.43186 15.6447L4.07138 14.7744L3.8106 13.8693L3.65282 12.9406L3.6 12.0001L3.65282 11.0596L3.8106 10.1309L4.07138 9.22575L4.43186 8.35547L4.88752 7.53103L5.43261 6.76278L6.0603 6.0604L6.76268 5.43271L7.53093 4.88761L8.35537 4.43196L9.22565 4.07148L10.1308 3.8107L11.0595 3.65291L12 3.6001Z" stroke="black" stroke-linecap="round" stroke-linejoin="round"/>
</svg>
