<svg width="26" height="26" viewBox="0 0 26 26" fill="none" xmlns="http://www.w3.org/2000/svg">
<path d="M6.5 10.3245C6.5 6.73461 9.41015 3.82446 13 3.82446C16.5899 3.82446 19.5 6.73461 19.5 10.3245V10.716C19.5 12.1523 19.0512 13.5528 18.2163 14.7216L13.0128 22.0065C13.0065 22.0153 12.9935 22.0153 12.9872 22.0065L7.78366 14.7216C6.9488 13.5528 6.5 12.1523 6.5 10.716V10.3245Z" stroke="black" stroke-linecap="round" stroke-linejoin="round"/>
<path d="M14.2705 7.72504C13.4676 7.3384 12.5324 7.3384 11.7295 7.72504C10.9267 8.11168 10.3436 8.84287 10.1453 9.71164C9.94698 10.5804 10.1551 11.4922 10.7107 12.1889C11.2663 12.8856 12.1089 13.2914 13 13.2914C13.8911 13.2914 14.7337 12.8856 15.2893 12.1889C15.8449 11.4922 16.053 10.5804 15.8547 9.71164C15.6564 8.84287 15.0733 8.11168 14.2705 7.72504Z" stroke="black" stroke-linecap="round" stroke-linejoin="round"/>
</svg>
