<svg width="19" height="25" viewBox="0 0 19 25" fill="none" xmlns="http://www.w3.org/2000/svg">
<path fill-rule="evenodd" clip-rule="evenodd" d="M9.25926 24.036C10.1987 24.036 14.6726 18.4439 15.7758 16.6627C17.4716 13.9245 18.5185 12.3045 18.5185 9.28171C18.5185 4.19197 14.373 0.065918 9.25926 0.065918C4.14551 0.065918 0 4.19197 0 9.28171C0 12.3203 0.970113 13.9294 2.66023 16.6627C3.83821 18.5677 8.31977 24.036 9.25926 24.036ZM9.25926 13.8896C11.8161 13.8896 13.8889 11.8266 13.8889 9.2817C13.8889 6.73683 11.8161 4.6738 9.25926 4.6738C6.70239 4.6738 4.62963 6.73683 4.62963 9.2817C4.62963 11.8266 6.70239 13.8896 9.25926 13.8896Z" fill="#1E27FE"/>
</svg>
