<svg width="30" height="31" viewBox="0 0 30 31" fill="none" xmlns="http://www.w3.org/2000/svg">
<path fill-rule="evenodd" clip-rule="evenodd" d="M15 30.5C23.2843 30.5 30 23.7843 30 15.5C30 7.21573 23.2843 0.5 15 0.5C6.71573 0.5 0 7.21573 0 15.5C0 23.7843 6.71573 30.5 15 30.5ZM20.1693 12.7923C20.1693 15.6688 17.252 22.584 14.8773 22.584C12.5026 22.584 9.58594 15.6688 9.58594 12.7923C9.58594 9.91583 12.0008 7.58398 14.8773 7.58398C17.7538 7.58398 20.1693 9.91583 20.1693 12.7923ZM17.5 13C17.5 14.3807 16.3807 15.5 15 15.5C13.6193 15.5 12.5 14.3807 12.5 13C12.5 11.6193 13.6193 10.5 15 10.5C16.3807 10.5 17.5 11.6193 17.5 13Z" fill="#D5DDE0"/>
</svg>
