<svg width="20" height="20" viewBox="0 0 20 20" fill="none" xmlns="http://www.w3.org/2000/svg">
<path d="M18.6725 0H11.1725C10.6575 0 9.93627 0.303308 9.57252 0.672609L0.273768 10.1132C0.0984332 10.2921 0 10.5342 0 10.7865C0 11.0388 0.0984332 11.2809 0.273768 11.4597L8.32252 19.6313C8.49867 19.8093 8.7371 19.9092 8.98564 19.9092C9.23419 19.9092 9.47261 19.8093 9.64877 19.6313L18.9475 10.1907C19.3125 9.82008 19.61 9.0891 19.61 8.56624V0.951805C19.609 0.699679 19.5099 0.458166 19.3343 0.279885C19.1587 0.101604 18.9209 0.0010025 18.6725 0ZM13.985 7.61444C13.7387 7.61435 13.4948 7.56502 13.2673 7.46924C13.0398 7.37347 12.833 7.23313 12.6589 7.05625C12.4848 6.87936 12.3467 6.66939 12.2526 6.43833C12.1584 6.20726 12.1099 5.95963 12.11 5.70956C12.1101 5.45949 12.1587 5.21189 12.253 4.98088C12.3474 4.74988 12.4856 4.54001 12.6598 4.36324C12.834 4.18647 13.0409 4.04628 13.2684 3.95066C13.496 3.85504 13.74 3.80587 13.9863 3.80595C14.4837 3.80612 14.9607 4.0069 15.3124 4.36414C15.664 4.72137 15.8614 5.20579 15.8613 5.71083C15.8611 6.21586 15.6633 6.70015 15.3115 7.05715C14.9596 7.41414 14.4825 7.6146 13.985 7.61444Z" fill="#303F9F" fill-opacity="0.8"/>
</svg>
